<svg xmlns="http://www.w3.org/2000/svg" width="1200" height="600" viewBox="0 0 1200 600">
  <defs>
    <linearGradient id="bg" x1="0%" y1="0%" x2="0%" y2="100%">
      <stop offset="0%" stop-color="#0f172a"/>
      <stop offset="100%" stop-color="#020617"/>
    </linearGradient>
  </defs>
  <rect width="1200" height="600" fill="url(#bg)"/>
  <text x="12" y="16" font-family="monospace" font-size="14" font-weight="bold" fill="#e2e8f0">
    Flame Graph - Total: 856,234.1us (856.2ms) | Top 10 Operations Shown
  </text>

  <rect x="0" y="22" width="1200" height="18" fill="#38bdf8" rx="2"/>
  <text x="4" y="35" font-family="monospace" font-size="11" fill="#1a1a2e">all (856,234.1us)</text>

  <rect x="0" y="42" width="680" height="18" fill="#4ade80" rx="2"/>
  <text x="4" y="55" font-family="monospace" font-size="11" fill="#1a1a2e">aten::linear (425,012.1us)</text>

  <rect x="0" y="62" width="340" height="18" fill="#fbbf24" rx="2"/>
  <text x="4" y="75" font-family="monospace" font-size="11" fill="#1a1a2e">aten::mm (198,567.3us)</text>

  <rect x="340" y="62" width="250" height="18" fill="#fbbf24" rx="2"/>
  <text x="344" y="75" font-family="monospace" font-size="11" fill="#1a1a2e">aten::addmm (156,234.5us)</text>

  <rect x="0" y="82" width="180" height="18" fill="#f87171" rx="2"/>
  <text x="4" y="95" font-family="monospace" font-size="11" fill="#1a1a2e">cudaLaunchKernel (98,567.3us)</text>

  <rect x="180" y="82" width="160" height="18" fill="#f87171" rx="2"/>
  <text x="184" y="95" font-family="monospace" font-size="11" fill="#1a1a2e">json.loads (76,234.1us)</text>

  <rect x="680" y="42" width="310" height="18" fill="#4ade80" rx="2"/>
  <text x="684" y="55" font-family="monospace" font-size="11" fill="#1a1a2e">httpx.AsyncClient.send (156,234.5us)</text>

  <rect x="680" y="62" width="190" height="18" fill="#c084fc" rx="2"/>
  <text x="684" y="75" font-family="monospace" font-size="11" fill="#1a1a2e">socket.send (87,654.2us)</text>

  <rect x="870" y="62" width="120" height="18" fill="#c084fc" rx="2"/>
  <text x="874" y="75" font-family="monospace" font-size="11" fill="#1a1a2e">socket.recv (68,580.3us)</text>

  <rect x="990" y="42" width="210" height="18" fill="#4ade80" rx="2"/>
  <text x="994" y="55" font-family="monospace" font-size="11" fill="#1a1a2e">torch.autograd.backward (89,012.4us)</text>

  <rect x="990" y="62" width="130" height="18" fill="#34d399" rx="2"/>
  <text x="994" y="75" font-family="monospace" font-size="11" fill="#1a1a2e">aten::softmax (45,234.8us)</text>

  <rect x="0" y="102" width="90" height="18" fill="#fb923c" rx="2"/>
  <text x="4" y="115" font-family="monospace" font-size="11" fill="#1a1a2e">asyncio.lock (15,632.4us)</text>

  <rect x="90" y="102" width="120" height="18" fill="#fb923c" rx="2"/>
  <text x="94" y="115" font-family="monospace" font-size="11" fill="#1a1a2e">json.dumps (23,891.3us)</text>

  <rect x="990" y="82" width="80" height="18" fill="#34d399" rx="2"/>
  <text x="994" y="95" font-family="monospace" font-size="11" fill="#1a1a2e">memcpyH2D (3,345.1us)</text>

  <rect x="0" y="125" width="1200" height="1" fill="#334155"/>
</svg>
